<?xml version="1.0" encoding="UTF-8" standalone="no"?>
<!-- Created with Inkscape (http://www.inkscape.org/) -->

<svg
   xmlns:dc="http://purl.org/dc/elements/1.1/"
   xmlns:cc="http://creativecommons.org/ns#"
   xmlns:rdf="http://www.w3.org/1999/02/22-rdf-syntax-ns#"
   xmlns:svg="http://www.w3.org/2000/svg"
   xmlns="http://www.w3.org/2000/svg"
   xmlns:sodipodi="http://sodipodi.sourceforge.net/DTD/sodipodi-0.dtd"
   xmlns:inkscape="http://www.inkscape.org/namespaces/inkscape"
   id="svg4709"
   version="1.1"
   inkscape:version="0.91 r13725"
   width="221.25"
   height="101.25"
   viewBox="0 0 221.25 101.25"
   sodipodi:docname="PointingHand.svg">
  <metadata
     id="metadata4715">
    <rdf:RDF>
      <cc:Work
         rdf:about="">
        <dc:format>image/svg+xml</dc:format>
        <dc:type
           rdf:resource="http://purl.org/dc/dcmitype/StillImage" />
        <dc:title></dc:title>
      </cc:Work>
    </rdf:RDF>
  </metadata>
  <defs
     id="defs4713" />
  <sodipodi:namedview
     pagecolor="#ffffff"
     bordercolor="#666666"
     borderopacity="1"
     objecttolerance="10"
     gridtolerance="10"
     guidetolerance="10"
     inkscape:pageopacity="0"
     inkscape:pageshadow="2"
     inkscape:window-width="1600"
     inkscape:window-height="837"
     id="namedview4711"
     showgrid="false"
     inkscape:zoom="4.7186441"
     inkscape:cx="110.625"
     inkscape:cy="50.625"
     inkscape:window-x="-8"
     inkscape:window-y="-8"
     inkscape:window-maximized="1"
     inkscape:current-layer="svg4709" />
  <path
     style="fill:#000000"
     d="M 0.95928816,99.415716 C -0.37652053,96.919734 -0.30199306,82.5 1.0467159,82.5 1.7721198,82.5 1.9022491,80.701338 1.4706292,76.640625 0.85277676,70.82782 3.6935808,48.696588 5.5141408,45.13972 5.9493532,44.289437 6.5775317,41.811205 6.910093,39.632539 c 0.3325613,-2.178666 1.8933127,-7.663041 3.468337,-12.1875 1.575023,-4.524459 3.274881,-9.913789 3.777462,-11.976289 0.50258,-2.0625 1.152402,-4.59375 1.44405,-5.625 0.325189,-1.1498498 -0.429939,-0.6059872 -1.95251,1.40625 -1.365527,1.804688 -2.937338,5.08139 -3.492912,7.281561 -0.5555747,2.200171 -1.3801223,4.228975 -1.832328,4.508453 -2.0084139,1.241268 0.00239,-5.556588 3.903442,-13.196264 2.34481,-4.5919836 2.488204,-4.6926391 7.0371,-4.9397033 2.621928,-0.1424047 8.520917,0.7213468 13.549766,1.9840063 5.78486,1.4524809 9.466098,1.9481256 10.503661,1.414221 0.878575,-0.4520937 4.042638,-1.054885 7.03125,-1.3395362 4.170963,-0.3972648 6.195793,-0.1226189 8.712336,1.1817321 4.149796,2.1508841 4.733108,4.5312121 1.3203,5.3877721 -1.455127,0.365213 -2.170635,0.979064 -1.687527,1.447765 C 59.647218,15.906231 75.902957,12.0733 88.860888,7.8666271 91.070314,7.1493572 93.734797,6.5625 94.781962,6.5625 c 1.665085,0 14.300748,-2.9260744 24.389308,-5.64789654 8.53827,-2.30356606 37.23898,0.73243794 54.69872,5.78611304 3.62931,1.0504965 8.28626,2.2751101 10.34876,2.7213638 11.62377,2.5149827 34.22997,10.5744097 35.85937,12.7843717 2.51719,3.414066 0.89367,7.857167 -3.74814,10.257537 -4.66774,2.413783 -20.40023,1.208342 -27.3837,-2.098171 -3.66864,-1.73702 -6.05044,-2.304362 -8.02022,-1.910405 -1.54102,0.308205 -3.91052,0.138866 -5.26553,-0.37631 -1.35502,-0.515176 -6.73374,-1.352592 -11.95272,-1.860925 -5.21898,-0.508334 -10.43828,-1.13904 -11.59844,-1.401571 -3.67555,-0.831738 -2.47529,2.544186 2.68681,7.557083 9.88448,9.598772 11.92942,11.877308 13.01772,14.504685 0.99899,2.411785 0.84435,3.05452 -1.46266,6.079164 -5.66606,7.428583 -8.8247,6.803099 -19.02968,-3.76832 -4.19873,-4.349508 -7.63406,-8.337051 -7.63406,-8.861207 0,-0.524156 -0.63281,-0.953012 -1.40625,-0.953012 -2.85876,0 -1.17611,2.561116 7.50862,11.428742 10.2647,10.480854 10.70752,11.884377 5.19378,16.461883 -5.41429,4.494953 -7.04723,4.08047 -15.57987,-3.954597 -4.08926,-3.85081 -7.98727,-7.014872 -8.66224,-7.03125 -1.80258,-0.04374 -0.78877,1.197654 7.42333,9.089749 8.40171,8.07433 8.58645,8.985526 2.85747,14.093898 -4.14721,3.697954 -6.05317,4.391486 -8.4878,3.088512 -1.01682,-0.54419 -3.37087,-0.989437 -5.23122,-0.989437 -3.63085,0 -4.64716,-0.593738 -9.49402,-5.546515 -3.0741,-3.141287 -3.20863,-3.180486 -7.00828,-2.042083 -7.775098,2.329478 -19.306857,2.36341 -29.45727,0.08667 C 72.1875,72.904032 67.013297,71.748147 65.845521,71.491944 64.677745,71.235742 63.492691,70.654619 63.212067,70.200561 62.504979,69.056468 48.994921,69.157756 48.28125,70.3125 c -0.357107,0.577811 1.240265,0.9375 4.163422,0.9375 5.592141,0 5.60736,0.053 3.005332,10.465458 -1.737442,6.952669 -3.785234,11.98734 -6.137767,15.090211 C 47.583156,99.086241 38.308298,100.66299 31.40625,99.849741 21.595134,98.693719 19.080284,98.618944 14.880668,99.358369 3.9284741,101.28673 1.964954,101.29481 0.95928816,99.415716 Z M 10.88373,78.515625 c -0.202188,-4.769531 0.212153,-12.43327 0.920757,-17.030531 1.339903,-8.692992 7.612065,-30.8077 10.758366,-37.932392 0.99668,-2.256952 1.812147,-5.290648 1.812147,-6.741547 0,-1.450899 0.421875,-2.898731 0.9375,-3.217405 1.337182,-0.826424 1.161565,-3.282025 -0.234375,-3.277197 -1.179847,0.0041 -8.203125,14.072146 -8.203125,16.431374 0,0.696529 -0.373235,1.497088 -0.82941,1.77902 -0.456176,0.281932 -1.024511,1.677923 -1.262968,3.102203 -0.238456,1.42428 -1.633152,6.80835 -3.099324,11.9646 -2.3559504,8.285429 -2.6722348,10.954878 -2.7214081,22.96875 -0.050142,12.250642 0.7060929,20.625 1.8625131,20.625 0.234818,0 0.261515,-3.902344 0.05932,-8.671875 z m 29.41606,1.106304 C 38.860547,66.788209 42.56578,39.972312 47.933425,24.375 53.363267,8.5969564 53.04719,9.9548859 50.991013,11.238989 45.331904,14.773162 38.598208,42.07989 37.926482,64.21875 c -0.32382,10.672511 0.05595,14.702198 2.06684,21.931058 0.886217,3.185822 1.036598,-0.01732 0.306468,-6.527879 z M 16.744372,75.703125 C 16.802231,62.962555 18.953953,51.565818 25.383554,29.945109 27.922599,21.407107 30,13.707888 30,12.835734 30,9.2843402 28.281262,11.714082 24.987444,19.921875 18.227104,36.767818 13.798573,58.021024 14.463438,70.428219 14.848039,77.605356 15.918935,86.25 16.423434,86.25 c 0.150172,0 0.294594,-4.746094 0.320938,-10.546875 z m 11.735087,5.15625 c -0.751656,-7.31004 1.112999,-24.758978 3.929094,-36.767383 1.983286,-8.457138 6.702684,-24.870699 8.491217,-29.53154 0.337967,-0.88073 0.02742,-1.435452 -0.803596,-1.435452 -2.107629,0 -6.164533,9.325797 -8.237456,18.935828 C 30.824152,36.85706 29.557076,42.679687 29.042996,45 26.48709,56.536127 25.566415,74.21617 27.152512,81.3036 c 0.608826,2.72052 1.28117,4.9464 1.494098,4.9464 0.212928,0 0.13771,-2.425781 -0.167151,-5.390625 z m -22.2456992,-5.625 C 6.1171357,58.504051 9.4802128,42.824561 17.89,20.890122 21.792232,10.712307 22.186335,9.010805 20.512246,9.5688347 16.427009,10.930581 8.0750343,36.11303 4.6736154,57.324668 3.0528873,67.431713 3.9129561,85.3125 6.0198348,85.3125 c 0.1562978,0 0.2525641,-4.535156 0.213925,-10.078125 z m 27.4576702,5.15625 c -1.614074,-12.038209 5.245245,-48.065993 12.162606,-63.882689 2.185407,-4.996979 2.089431,-5.723406 -0.641657,-4.856592 -3.486526,1.10658 -6.865398,12.289443 -12.059052,39.911156 -1.468321,7.809054 -1.909077,25.931509 -0.758129,31.171741 0.996409,4.536621 1.980232,2.757846 1.296232,-2.343616 z M 23.86564,56.25 c 1.024073,-6.226782 5.681607,-23.646127 10.837924,-40.534233 0.788009,-2.58091 -0.426157,-4.557662 -1.80026,-2.930956 C 31.015807,15.01929 24.375,35.03826 24.375,38.493716 c 0,1.109289 -0.631277,4.453064 -1.402838,7.430613 -2.294932,8.856435 -3.246751,23.886486 -2.019406,31.888171 l 1.078494,7.03125 0.570281,-12.1875 C 22.915187,65.953125 23.484036,58.570312 23.86564,56.25 Z m 20.815794,18.771591 c -0.680043,-6.506297 2.21435,-30.188853 5.101348,-41.740341 1.030938,-4.125 2.224555,-9.115964 2.652483,-11.091032 0.427927,-1.975068 1.250366,-4.063349 1.827642,-4.640625 1.282246,-1.282246 1.38086,-3.487093 0.155962,-3.487093 -1.037707,0 -4.554368,7.407776 -5.785717,12.1875 -5.199415,20.182552 -7.573747,39.834508 -6.044695,50.030958 0.991626,6.612634 2.801912,5.523364 2.092977,-1.259367 z"
     id="path4719"
     inkscape:connector-curvature="0" />
</svg>
